<?xml version="1.0" encoding="utf-8"?>
<svg xmlns="http://www.w3.org/2000/svg" style="margin: auto; display: block; shape-rendering: auto; background: rgba(0, 0, 0, 0) none repeat scroll 0% 0%;" width="284" height="65" preserveAspectRatio="xMidYMid">
<style type="text/css">
  text {
    text-anchor: middle; font-size: 56px; opacity: 0;
  }
</style>
<g style="transform-origin:142px 32.5px;transform:scale(1)">
<g transform="translate(142,32.5)">
  <g transform="translate(0,0)"><g class="path" style="transform: scale(0.91); transform-origin: -115.632px -5.29393px 0px; animation: 1s linear -0.594s infinite normal forwards running breath-90023fbe-20cf-4727-9167-571003830c78;"><path d="M4.48 0L4.48-41.44L9.52-41.44L9.52-26.10L9.52-26.10Q10.08-26.71 10.92-27.38L10.92-27.38L10.92-27.38Q11.76-28.06 12.80-28.59L12.80-28.59L12.80-28.59Q13.83-29.12 15.12-29.46L15.12-29.46L15.12-29.46Q16.41-29.79 17.92-29.79L17.92-29.79L17.92-29.79Q20.44-29.79 22.76-28.78L22.76-28.78L22.76-28.78Q25.09-27.78 26.85-25.87L26.85-25.87L26.85-25.87Q28.62-23.97 29.68-21.17L29.68-21.17L29.68-21.17Q30.74-18.37 30.74-14.84L30.74-14.84L30.74-14.84Q30.74-11.37 29.62-8.51L29.62-8.51L29.62-8.51Q28.50-5.66 26.66-3.61L26.66-3.61L26.66-3.61Q24.81-1.57 22.43-0.45L22.43-0.45L22.43-0.45Q20.05 0.67 17.58 0.67L17.58 0.67L17.58 0.67Q15.06 0.67 12.85-0.22L12.85-0.22L12.85-0.22Q10.64-1.12 9.18-2.41L9.18-2.41L9.18 0L4.48 0zM25.59-14.67L25.59-14.67L25.59-14.67Q25.59-17.19 24.89-19.18L24.89-19.18L24.89-19.18Q24.19-21.17 22.99-22.57L22.99-22.57L22.99-22.57Q21.78-23.97 20.19-24.70L20.19-24.70L20.19-24.70Q18.59-25.42 16.80-25.42L16.80-25.42L16.80-25.42Q14.39-25.42 12.46-24.22L12.46-24.22L12.46-24.22Q10.53-23.02 9.52-21.62L9.52-21.62L9.52-6.05L9.52-6.05Q10.81-5.04 12.54-4.42L12.54-4.42L12.54-4.42Q14.28-3.81 16.24-3.81L16.24-3.81L16.24-3.81Q18.26-3.81 19.99-4.59L19.99-4.59L19.99-4.59Q21.73-5.38 22.96-6.80L22.96-6.80L22.96-6.80Q24.19-8.23 24.89-10.22L24.89-10.22L24.89-10.22Q25.59-12.21 25.59-14.67" fill="#52b548" stroke="none" stroke-width="none" transform="translate(-133.2416534423828,15.091072967529305)" style="fill: rgb(82, 181, 72);"></path></g><g class="path" style="transform: scale(0.91); transform-origin: -84.6067px 0.531073px 0px; animation: 1s linear -0.528s infinite normal forwards running breath-90023fbe-20cf-4727-9167-571003830c78;"><path d="M61.32-12.49L40.94-12.49L40.94-12.49Q41.44-8.40 43.79-6.10L43.79-6.10L43.79-6.10Q46.14-3.81 50.01-3.81L50.01-3.81L50.01-3.81Q52.53-3.81 54.54-4.34L54.54-4.34L54.54-4.34Q56.56-4.87 58.41-5.71L58.41-5.71L59.58-1.40L59.58-1.40Q57.57-0.45 55.05 0.11L55.05 0.11L55.05 0.11Q52.53 0.67 49.39 0.67L49.39 0.67L49.39 0.67Q46.26 0.67 43.74-0.36L43.74-0.36L43.74-0.36Q41.22-1.40 39.45-3.33L39.45-3.33L39.45-3.33Q37.69-5.26 36.74-8.09L36.74-8.09L36.74-8.09Q35.78-10.92 35.78-14.56L35.78-14.56L35.78-14.56Q35.78-17.81 36.74-20.61L36.74-20.61L36.74-20.61Q37.69-23.41 39.42-25.45L39.42-25.45L39.42-25.45Q41.16-27.50 43.57-28.64L43.57-28.64L43.57-28.64Q45.98-29.79 48.94-29.79L48.94-29.79L48.94-29.79Q52.08-29.79 54.43-28.73L54.43-28.73L54.43-28.73Q56.78-27.66 58.35-25.82L58.35-25.82L58.35-25.82Q59.92-23.97 60.70-21.50L60.70-21.50L60.70-21.50Q61.49-19.04 61.49-16.30L61.49-16.30L61.49-16.30Q61.49-14.34 61.32-12.49L61.32-12.49zM48.83-25.42L48.83-25.42L48.83-25.42Q45.53-25.42 43.43-23.18L43.43-23.18L43.43-23.18Q41.33-20.94 40.88-16.58L40.88-16.58L56.84-16.58L56.84-16.58Q56.84-20.83 54.71-23.13L54.71-23.13L54.71-23.13Q52.58-25.42 48.83-25.42" fill="#52b548" stroke="none" stroke-width="none" transform="translate(-133.2416534423828,15.091072967529305)" style="fill: rgb(82, 181, 72);"></path></g><g class="path" style="transform: scale(0.91); transform-origin: -35.6867px 6.35607px 0px; animation: 1s linear -0.462s infinite normal forwards running breath-90023fbe-20cf-4727-9167-571003830c78;"><path d="M82.77-25.20L83.83-29.12L83.83-29.12Q88.98-29.12 90.27-25.03L90.27-25.03L90.27-25.03Q90.66-25.65 91.48-26.49L91.48-26.49L91.48-26.49Q92.29-27.33 93.46-28.06L93.46-28.06L93.46-28.06Q94.64-28.78 96.15-29.29L96.15-29.29L96.15-29.29Q97.66-29.79 99.51-29.79L99.51-29.79L99.51-29.79Q102.03-29.79 104.36-28.78L104.36-28.78L104.36-28.78Q106.68-27.78 108.44-25.87L108.44-25.87L108.44-25.87Q110.21-23.97 111.27-21.17L111.27-21.17L111.27-21.17Q112.34-18.37 112.34-14.84L112.34-14.84L112.34-14.84Q112.34-11.37 111.30-8.51L111.30-8.51L111.30-8.51Q110.26-5.66 108.50-3.61L108.50-3.61L108.50-3.61Q106.74-1.57 104.44-0.45L104.44-0.45L104.44-0.45Q102.14 0.67 99.62 0.67L99.62 0.67L99.62 0.67Q96.99 0.67 94.78-0.36L94.78-0.36L94.78-0.36Q92.57-1.40 91.11-2.74L91.11-2.74L91.11 12.32L86.07 12.32L86.07-21.67L86.07-21.67Q86.07-23.58 85.15-24.39L85.15-24.39L85.15-24.39Q84.22-25.20 82.77-25.20L82.77-25.20zM107.18-14.67L107.18-14.67L107.18-14.67Q107.18-17.19 106.48-19.18L106.48-19.18L106.48-19.18Q105.78-21.17 104.58-22.57L104.58-22.57L104.58-22.57Q103.38-23.97 101.78-24.70L101.78-24.70L101.78-24.70Q100.18-25.42 98.39-25.42L98.39-25.42L98.39-25.42Q95.98-25.42 94.05-24.22L94.05-24.22L94.05-24.22Q92.12-23.02 91.11-21.62L91.11-21.62L91.11-7.28L91.11-7.28Q92.57-5.77 94.44-4.79L94.44-4.79L94.44-4.79Q96.32-3.81 98.62-3.81L98.62-3.81L98.62-3.81Q100.52-3.81 102.09-4.59L102.09-4.59L102.09-4.59Q103.66-5.38 104.80-6.80L104.80-6.80L104.80-6.80Q105.95-8.23 106.57-10.22L106.57-10.22L106.57-10.22Q107.18-12.21 107.18-14.67" fill="#52b548" stroke="none" stroke-width="none" transform="translate(-133.2416534423828,15.091072967529305)" style="fill: rgb(82, 181, 72);"></path></g><g class="path" style="transform: scale(0.91); transform-origin: -0.966656px 0.531073px 0px; animation: 1s linear -0.396s infinite normal forwards running breath-90023fbe-20cf-4727-9167-571003830c78;"><path d="M117.38-14.39L117.38-14.39L117.38-14.39Q117.38-17.64 118.38-20.47L118.38-20.47L118.38-20.47Q119.39-23.30 121.21-25.37L121.21-25.37L121.21-25.37Q123.03-27.44 125.58-28.62L125.58-28.62L125.58-28.62Q128.13-29.79 131.15-29.79L131.15-29.79L131.15-29.79Q133.67-29.79 135.72-28.92L135.72-28.92L135.72-28.92Q137.76-28.06 139.27-26.77L139.27-26.77L139.27-29.12L143.86-29.12L143.86-7.06L143.86-7.06Q143.86-4.93 144.90-4.28L144.90-4.28L144.90-4.28Q145.94-3.64 147.17-3.64L147.17-3.64L146.10 0.28L146.10 0.28Q140.73 0.28 139.61-4.09L139.61-4.09L139.61-4.09Q138.94-3.19 138.07-2.32L138.07-2.32L138.07-2.32Q137.20-1.46 136.08-0.78L136.08-0.78L136.08-0.78Q134.96-0.11 133.56 0.28L133.56 0.28L133.56 0.28Q132.16 0.67 130.48 0.67L130.48 0.67L130.48 0.67Q127.74 0.67 125.36-0.39L125.36-0.39L125.36-0.39Q122.98-1.46 121.21-3.42L121.21-3.42L121.21-3.42Q119.45-5.38 118.41-8.15L118.41-8.15L118.41-8.15Q117.38-10.92 117.38-14.39zM131.60-3.81L131.60-3.81L131.60-3.81Q133.73-3.81 135.63-4.82L135.63-4.82L135.63-4.82Q137.54-5.82 138.82-7.45L138.82-7.45L138.82-23.07L138.82-23.07Q137.31-24.14 135.49-24.78L135.49-24.78L135.49-24.78Q133.67-25.42 131.66-25.42L131.66-25.42L131.66-25.42Q129.64-25.42 127.96-24.64L127.96-24.64L127.96-24.64Q126.28-23.86 125.08-22.43L125.08-22.43L125.08-22.43Q123.87-21 123.20-18.98L123.20-18.98L123.20-18.98Q122.53-16.97 122.53-14.56L122.53-14.56L122.53-14.56Q122.53-12.21 123.20-10.22L123.20-10.22L123.20-10.22Q123.87-8.23 125.10-6.80L125.10-6.80L125.10-6.80Q126.34-5.38 127.99-4.59L127.99-4.59L127.99-4.59Q129.64-3.81 131.60-3.81" fill="#52b548" stroke="none" stroke-width="none" transform="translate(-133.2416534423828,15.091072967529305)" style="fill: rgb(82, 181, 72);"></path></g><g class="path" style="transform: scale(0.91); transform-origin: 27.2833px -3.19393px 0px; animation: 1s linear -0.33s infinite normal forwards running breath-90023fbe-20cf-4727-9167-571003830c78;"><path d="M155.12-28.06L156.18-37.24L160.05-37.24L160.05-28.06L168.11-28.06L168.11-23.69L160.05-23.69L160.05-9.63L160.05-9.63Q160.05-8.01 160.41-6.89L160.41-6.89L160.41-6.89Q160.78-5.77 161.39-5.10L161.39-5.10L161.39-5.10Q162.01-4.42 162.88-4.12L162.88-4.12L162.88-4.12Q163.74-3.81 164.70-3.81L164.70-3.81L164.70-3.81Q166.10-3.81 167.33-4.26L167.33-4.26L167.33-4.26Q168.56-4.70 169.68-5.32L169.68-5.32L171.08-1.29L171.08-1.29Q169.96-0.62 168.06 0.03L168.06 0.03L168.06 0.03Q166.15 0.67 164.08 0.67L164.08 0.67L164.08 0.67Q159.88 0.67 157.44-2.07L157.44-2.07L157.44-2.07Q155.01-4.82 155.01-10.02L155.01-10.02L155.01-23.69L149.97-23.69L149.97-28.06L155.12-28.06" fill="#52b548" stroke="none" stroke-width="none" transform="translate(-133.2416534423828,15.091072967529305)" style="fill: rgb(82, 181, 72);"></path></g><g class="path" style="transform: scale(0.91); transform-origin: 45.3983px 0.531073px 0px; animation: 1s linear -0.264s infinite normal forwards running breath-90023fbe-20cf-4727-9167-571003830c78;"><path d="M181.16-29.12L181.16 0L176.12 0L176.12-29.12L181.16-29.12" fill="#52b548" stroke="none" stroke-width="none" transform="translate(-133.2416534423828,15.091072967529305)" style="fill: rgb(82, 181, 72);"></path></g><g class="path" style="transform: scale(0.91); transform-origin: 45.3983px -22.5389px 0px; animation: 1s linear -0.198s infinite normal forwards running breath-90023fbe-20cf-4727-9167-571003830c78;"><path d="M178.64-34.10L178.64-34.10L178.64-34.10Q177.18-34.10 176.15-35.14L176.15-35.14L176.15-35.14Q175.11-36.18 175.11-37.63L175.11-37.63L175.11-37.63Q175.11-39.26 176.06-40.21L176.06-40.21L176.06-40.21Q177.02-41.16 178.64-41.16L178.64-41.16L178.64-41.16Q180.10-41.16 181.13-40.12L181.13-40.12L181.13-40.12Q182.17-39.09 182.17-37.63L182.17-37.63L182.17-37.63Q182.17-36.01 181.22-35.06L181.22-35.06L181.22-35.06Q180.26-34.10 178.64-34.10" fill="#52b548" stroke="none" stroke-width="none" transform="translate(-133.2416534423828,15.091072967529305)" style="fill: rgb(82, 181, 72);"></path></g><g class="path" style="transform: scale(0.91); transform-origin: 67.7684px 0.531073px 0px; animation: 1s linear -0.132s infinite normal forwards running breath-90023fbe-20cf-4727-9167-571003830c78;"><path d="M213.70-12.49L193.31-12.49L193.31-12.49Q193.82-8.40 196.17-6.10L196.17-6.10L196.17-6.10Q198.52-3.81 202.38-3.81L202.38-3.81L202.38-3.81Q204.90-3.81 206.92-4.34L206.92-4.34L206.92-4.34Q208.94-4.87 210.78-5.71L210.78-5.71L211.96-1.40L211.96-1.40Q209.94-0.45 207.42 0.11L207.42 0.11L207.42 0.11Q204.90 0.67 201.77 0.67L201.77 0.67L201.77 0.67Q198.63 0.67 196.11-0.36L196.11-0.36L196.11-0.36Q193.59-1.40 191.83-3.33L191.83-3.33L191.83-3.33Q190.06-5.26 189.11-8.09L189.11-8.09L189.11-8.09Q188.16-10.92 188.16-14.56L188.16-14.56L188.16-14.56Q188.16-17.81 189.11-20.61L189.11-20.61L189.11-20.61Q190.06-23.41 191.80-25.45L191.80-25.45L191.80-25.45Q193.54-27.50 195.94-28.64L195.94-28.64L195.94-28.64Q198.35-29.79 201.32-29.79L201.32-29.79L201.32-29.79Q204.46-29.79 206.81-28.73L206.81-28.73L206.81-28.73Q209.16-27.66 210.73-25.82L210.73-25.82L210.73-25.82Q212.30-23.97 213.08-21.50L213.08-21.50L213.08-21.50Q213.86-19.04 213.86-16.30L213.86-16.30L213.86-16.30Q213.86-14.34 213.70-12.49L213.70-12.49zM201.21-25.42L201.21-25.42L201.21-25.42Q197.90-25.42 195.80-23.18L195.80-23.18L195.80-23.18Q193.70-20.94 193.26-16.58L193.26-16.58L209.22-16.58L209.22-16.58Q209.22-20.83 207.09-23.13L207.09-23.13L207.09-23.13Q204.96-25.42 201.21-25.42" fill="#52b548" stroke="none" stroke-width="none" transform="translate(-133.2416534423828,15.091072967529305)" style="fill: rgb(82, 181, 72);"></path></g><g class="path" style="transform: scale(0.91); transform-origin: 99.5784px 0.196073px 0px; animation: 1s linear -0.066s infinite normal forwards running breath-90023fbe-20cf-4727-9167-571003830c78;"><path d="M225.46-29.12L225.46-24.25L225.46-24.25Q227.02-26.60 229.46-28.20L229.46-28.20L229.46-28.20Q231.90-29.79 235.26-29.79L235.26-29.79L235.26-29.79Q240.18-29.79 242.62-26.82L242.62-26.82L242.62-26.82Q245.06-23.86 245.06-18.98L245.06-18.98L245.06 0L240.02 0L240.02-18.42L240.02-18.42Q240.02-21.62 238.56-23.49L238.56-23.49L238.56-23.49Q237.10-25.37 234.42-25.37L234.42-25.37L234.42-25.37Q233.13-25.37 231.90-24.89L231.90-24.89L231.90-24.89Q230.66-24.42 229.52-23.58L229.52-23.58L229.52-23.58Q228.37-22.74 227.39-21.62L227.39-21.62L227.39-21.62Q226.41-20.50 225.62-19.26L225.62-19.26L225.62 0L220.58 0L220.58-29.12L225.46-29.12" fill="#52b548" stroke="none" stroke-width="none" transform="translate(-133.2416534423828,15.091072967529305)" style="fill: rgb(82, 181, 72);"></path></g><g class="path" style="transform: scale(0.91); transform-origin: 127.133px -3.19393px 0px; animation: 1s linear 0s infinite normal forwards running breath-90023fbe-20cf-4727-9167-571003830c78;"><path d="M254.97-28.06L256.03-37.24L259.90-37.24L259.90-28.06L267.96-28.06L267.96-23.69L259.90-23.69L259.90-9.63L259.90-9.63Q259.90-8.01 260.26-6.89L260.26-6.89L260.26-6.89Q260.62-5.77 261.24-5.10L261.24-5.10L261.24-5.10Q261.86-4.42 262.72-4.12L262.72-4.12L262.72-4.12Q263.59-3.81 264.54-3.81L264.54-3.81L264.54-3.81Q265.94-3.81 267.18-4.26L267.18-4.26L267.18-4.26Q268.41-4.70 269.53-5.32L269.53-5.32L270.93-1.29L270.93-1.29Q269.81-0.62 267.90 0.03L267.90 0.03L267.90 0.03Q266 0.67 263.93 0.67L263.93 0.67L263.93 0.67Q259.73 0.67 257.29-2.07L257.29-2.07L257.29-2.07Q254.86-4.82 254.86-10.02L254.86-10.02L254.86-23.69L249.82-23.69L249.82-28.06L254.97-28.06" fill="#52b548" stroke="none" stroke-width="none" transform="translate(-133.2416534423828,15.091072967529305)" style="fill: rgb(82, 181, 72);"></path></g></g>
</g>
</g>
<style id="breath-90023fbe-20cf-4727-9167-571003830c78" data-anikit="">@keyframes breath-90023fbe-20cf-4727-9167-571003830c78
{
  0% {
    animation-timing-function: cubic-bezier(0.9647,0.2413,-0.0705,0.7911);
    transform: scale(0.9099999999999999);
  }
  51% {
    animation-timing-function: cubic-bezier(0.9226,0.2631,-0.0308,0.7628);
    transform: scale(1.02994);
  }
  100% {
    transform: scale(0.9099999999999999);
  }
}</style></svg>